<?xml version="1.0" standalone="no"?>
<!DOCTYPE svg PUBLIC "-//W3C//DTD SVG 20010904//EN"
 "http://www.w3.org/TR/2001/REC-SVG-20010904/DTD/svg10.dtd">
<svg version="1.0" xmlns="http://www.w3.org/2000/svg"
 width="680.000000pt" height="680.000000pt" viewBox="0 0 680.000000 680.000000"
 preserveAspectRatio="xMidYMid meet">
<g transform="translate(0.000000,680.000000) scale(0.100000,-0.100000)" stroke="none">

<path fill="#ffffff" d="M3210 6660 c-686 -53 -1300 -292 -1815 -707 -140 -112 -377 -347 -487 -483 -388 -479 -620 -1014 -709 -1640 -29 -204 -32 -625 -5 -820 102 -748 397 -1360 908 -1886 238 -243 485 -433 763 -586 837 -459 1841 -522 2730 -171 285 112 592 290 835 483 133 106 410 385 516 521 361 462 586 979 675 1554 31 198 38 640 14 840 -83 704 -362 1318 -835 1840 -524 579 -1243 948 -2024 1040 -162 19 -424 26 -566 15z m-950 -2085 c7 -9 16 -77 22 -172 9 -144 12 -160 33 -183 22 -23 24 -35 27 -165 l3 -140 38 -69 c21 -38 66 -104 100 -148 112 -144 139 -183 152 -213 8 -16 30 -52 49 -80 20 -27 36 -54 36 -58 0 -5 24 -50 54 -100 l53 -92 7 -121 c3 -66 15 -181 26 -255 37 -246 50 -666 30 -963 -10 -146 -11 -150 -47 -208 -20 -33 -54 -79 -74 -102 -57 -65 -172 -155 -205 -161 -16 -3 -85 -7 -154 -9 -149 -6 -251 -16 -265 -27 -14 -10 -98 -18 -280 -24 -82 -4 -170 -11 -195 -16 -25 -6 -72 -15 -105 -21 -33 -6 -63 -17 -67 -24 -4 -6 -23 -21 -42 -32 l-35 -21 -121 126 c-154 160 -261 293 -372 463 -199 302 -349 661 -423 1011 -47 225 -56 307 -62 569 -4 220 -2 278 16 421 11 92 23 173 26 180 4 10 21 13 59 11 30 -2 122 6 204 18 l150 21 61 -25 c41 -18 79 -26 118 -26 139 0 357 -42 547 -106 107 -36 131 -40 141 -23 4 6 13 57 21 113 15 121 36 185 76 244 30 44 117 102 154 102 22 0 83 41 97 66 6 10 3 23 -7 37 -52 71 -88 128 -85 132 3 2 25 -3 49 -12 41 -14 48 -14 84 2 28 12 42 26 54 56 16 41 32 49 52 24z m3000 -364 c0 -17 -4 -33 -10 -36 -28 -17 -30 -44 -5 -73 13 -16 33 -52 45 -81 l21 -53 -22 -36 c-16 -28 -24 -69 -34 -177 -8 -77 -19 -161 -25 -187 -11 -43 -10 -48 15 -87 15 -22 30 -41 33 -41 25 0 165 45 168 54 3 7 -2 31 -11 55 -8 24 -15 55 -15 69 0 14 -11 35 -25 48 -24 22 -25 27 -19 96 4 40 8 75 10 76 1 2 -8 24 -21 48 -22 42 -23 45 -8 96 8 29 19 61 24 70 5 10 9 24 9 33 0 28 32 96 50 105 43 23 80 -35 54 -85 -18 -35 -18 -35 5 -35 30 0 58 -32 69 -79 11 -46 9 -57 -15 -107 -13 -25 -14 -44 -6 -108 8 -67 7 -81 -7 -99 -18 -24 -35 -157 -20 -157 5 0 56 27 113 59 117 67 175 86 391 131 81 17 191 44 242 59 52 16 97 24 100 19 12 -20 25 -353 19 -503 -25 -679 -291 -1349 -733 -1853 l-55 -64 -15 39 c-54 147 -90 201 -145 222 -16 6 -102 11 -200 11 -169 0 -171 0 -209 -27 -21 -14 -82 -39 -135 -54 -107 -31 -72 -31 -421 2 -184 17 -293 60 -392 155 -65 62 -71 75 -134 274 -70 225 -76 270 -86 665 -10 380 -13 425 -32 454 -10 17 -5 27 43 83 86 97 143 180 215 308 39 69 98 155 145 209 43 51 82 98 86 105 5 8 28 30 51 50 43 35 46 36 126 36 l82 0 15 -46 14 -47 170 -74 c135 -59 174 -72 187 -64 10 6 20 11 23 11 2 0 18 -27 35 -60 25 -50 35 -61 67 -69 20 -6 38 -9 39 -8 1 1 -1 62 -4 136 l-7 134 -40 12 -40 11 0 64 c0 36 -6 83 -14 105 l-14 39 53 48 c32 29 63 48 78 48 35 0 62 18 62 41 0 32 19 59 40 59 15 0 20 -7 20 -29z"/>
</g>
</svg>
