<svg xmlns="http://www.w3.org/2000/svg" xmlns:xlink="http://www.w3.org/1999/xlink" width="500" zoomAndPan="magnify" viewBox="0 0 375 374.999991" height="500" preserveAspectRatio="xMidYMid meet" version="1.0"><defs><g/><clipPath id="7176e45768"><path d="M 94.410156 153.757812 L 163.410156 153.757812 L 163.410156 222.757812 L 94.410156 222.757812 Z M 94.410156 153.757812 " clip-rule="nonzero"/></clipPath></defs><rect x="-37.5" width="450" fill="#ffffff" y="-37.499999" height="449.999989" fill-opacity="1"/><rect x="-37.5" width="450" fill="#ffffff" y="-37.499999" height="449.999989" fill-opacity="1"/><rect x="-37.5" width="450" fill="#000000" y="-37.499999" height="449.999989" fill-opacity="1"/><g clip-path="url(#7176e45768)"><path fill="#ffffff" d="M 149.152344 153.757812 L 108.667969 153.757812 C 100.792969 153.757812 94.410156 160.140625 94.410156 168.015625 L 94.410156 208.503906 C 94.410156 216.375 100.792969 222.757812 108.667969 222.757812 L 149.15625 222.757812 C 157.027344 222.757812 163.410156 216.375 163.410156 208.503906 L 163.410156 168.015625 C 163.410156 160.140625 157.027344 153.757812 149.152344 153.757812 Z M 100.488281 204.496094 L 100.488281 171.582031 C 100.488281 165.097656 105.746094 159.839844 112.230469 159.839844 L 145.585938 159.839844 L 149.605469 159.894531 C 150.027344 159.902344 150.1875 160.441406 149.84375 160.683594 C 141.453125 166.542969 119.234375 204.328125 100.929688 204.929688 C 100.6875 204.9375 100.488281 204.738281 100.488281 204.496094 Z M 157.378906 207.3125 C 157.378906 212.484375 153.1875 216.679688 148.015625 216.679688 L 116.304688 216.613281 C 115.882812 216.613281 115.714844 216.078125 116.058594 215.828125 C 123.234375 210.640625 142.476562 181.324219 156.925781 180.714844 C 157.175781 180.707031 157.378906 180.902344 157.378906 181.148438 Z M 157.378906 207.3125 " fill-opacity="1" fill-rule="nonzero"/></g><g fill="#ffffff" fill-opacity="1"><g transform="translate(165.43161, 185.999988)"><g><path d="M 21.433594 -5.042969 L 16.390625 -5.042969 L 16.390625 -25.21875 L 11.347656 -25.21875 L 11.347656 -5.042969 L 6.304688 -5.042969 L 6.304688 -25.21875 L 1.261719 -25.21875 L 1.261719 -5.042969 C 1.261719 -2.269531 3.53125 0 6.304688 0 L 21.433594 0 C 24.210938 0 26.480469 -2.269531 26.480469 -5.042969 L 26.480469 -25.21875 L 21.433594 -25.21875 Z M 21.433594 -5.042969 "/></g></g></g><g fill="#ffffff" fill-opacity="1"><g transform="translate(192.531297, 185.999988)"><g><path d="M 6.304688 -25.21875 C 3.53125 -25.21875 1.261719 -22.949219 1.261719 -20.175781 L 1.261719 0 L 6.304688 0 L 6.304688 -10.085938 L 21.433594 -10.085938 L 21.433594 0 L 26.480469 0 L 26.480469 -20.175781 C 26.480469 -22.949219 24.210938 -25.21875 21.433594 -25.21875 Z M 6.304688 -20.175781 L 21.433594 -20.175781 L 21.433594 -15.128906 L 6.304688 -15.128906 Z M 6.304688 -20.175781 "/></g></g></g><g fill="#ffffff" fill-opacity="1"><g transform="translate(219.630985, 185.999988)"><g><path d="M 13.871094 0 C 14.972656 0 16.109375 -0.410156 17.023438 -1.199219 L 25.535156 -8.511719 C 26.132812 -9.046875 26.449219 -9.707031 26.449219 -10.527344 L 26.480469 -25.21875 L 21.433594 -25.21875 L 21.433594 -11.664062 L 13.871094 -5.136719 L 6.304688 -11.664062 L 6.304688 -25.21875 L 1.261719 -25.21875 L 1.261719 -10.527344 C 1.261719 -9.742188 1.609375 -9.046875 2.207031 -8.511719 L 10.71875 -1.199219 C 11.664062 -0.410156 12.765625 0 13.871094 0 Z M 13.871094 0 "/></g></g></g><g fill="#ffffff" fill-opacity="1"><g transform="translate(246.730672, 185.999988)"><g><path d="M 21.433594 -15.128906 L 6.304688 -15.128906 L 6.304688 -25.21875 L 1.261719 -25.21875 L 1.261719 -15.128906 C 1.261719 -12.355469 3.53125 -10.085938 6.304688 -10.085938 L 21.433594 -10.085938 L 21.433594 -5.042969 L 1.261719 -5.042969 L 1.261719 0 L 21.433594 0 C 24.210938 0 26.480469 -2.269531 26.480469 -5.042969 L 26.480469 -25.21875 L 21.433594 -25.21875 Z M 21.433594 -15.128906 "/></g></g></g><g fill="#ffffff" fill-opacity="1"><g transform="translate(165.43161, 215.249986)"><g><path d="M 21.433594 0 C 24.210938 0 26.480469 -2.269531 26.480469 -5.042969 L 26.480469 -20.175781 C 26.480469 -22.949219 24.210938 -25.21875 21.433594 -25.21875 L 1.261719 -25.21875 L 1.261719 0 Z M 6.304688 -20.175781 L 21.433594 -20.175781 L 21.433594 -5.042969 L 6.304688 -5.042969 Z M 6.304688 -20.175781 "/></g></g></g><g fill="#ffffff" fill-opacity="1"><g transform="translate(192.531297, 215.249986)"><g><path d="M 6.304688 -25.21875 C 3.53125 -25.21875 1.261719 -22.949219 1.261719 -20.175781 L 1.261719 0 L 6.304688 0 L 6.304688 -10.085938 L 21.433594 -10.085938 L 21.433594 0 L 26.480469 0 L 26.480469 -20.175781 C 26.480469 -22.949219 24.210938 -25.21875 21.433594 -25.21875 Z M 6.304688 -20.175781 L 21.433594 -20.175781 L 21.433594 -15.128906 L 6.304688 -15.128906 Z M 6.304688 -20.175781 "/></g></g></g><g fill="#ffffff" fill-opacity="1"><g transform="translate(219.630985, 215.249986)"><g><path d="M 21.433594 -5.042969 L 16.390625 -5.042969 L 16.390625 -25.21875 L 11.347656 -25.21875 L 11.347656 -5.042969 L 6.304688 -5.042969 L 6.304688 -25.21875 L 1.261719 -25.21875 L 1.261719 -5.042969 C 1.261719 -2.269531 3.53125 0 6.304688 0 L 21.433594 0 C 24.210938 0 26.480469 -2.269531 26.480469 -5.042969 L 26.480469 -25.21875 L 21.433594 -25.21875 Z M 21.433594 -5.042969 "/></g></g></g><g fill="#ffffff" fill-opacity="1"><g transform="translate(246.730672, 215.249986)"><g><path d="M 26.480469 -25.21875 L 6.304688 -25.21875 C 3.53125 -25.21875 1.261719 -22.949219 1.261719 -20.175781 L 1.261719 -5.042969 C 1.261719 -2.269531 3.53125 0 6.304688 0 L 21.433594 0 C 24.242188 0 26.480469 -2.300781 26.480469 -5.042969 L 26.480469 -15.128906 L 11.347656 -15.128906 L 11.347656 -10.085938 L 21.433594 -10.085938 L 21.433594 -5.042969 L 6.304688 -5.042969 L 6.304688 -20.175781 L 26.480469 -20.175781 Z M 26.480469 -25.21875 "/></g></g></g><g fill="#ffffff" fill-opacity="1"><g transform="translate(273.83036, 215.249986)"><g><path d="M 26.480469 -25.21875 L 6.304688 -25.21875 C 3.53125 -25.21875 1.261719 -22.949219 1.261719 -20.175781 L 1.261719 -15.128906 C 1.261719 -12.355469 3.53125 -10.085938 6.304688 -10.085938 L 21.433594 -10.085938 L 21.433594 -5.042969 L 1.261719 -5.042969 L 1.261719 0 L 21.433594 0 C 24.210938 0 26.480469 -2.269531 26.480469 -5.042969 L 26.480469 -10.085938 C 26.480469 -12.859375 24.210938 -15.128906 21.433594 -15.128906 L 6.304688 -15.128906 L 6.304688 -20.175781 L 26.480469 -20.175781 Z M 26.480469 -25.21875 "/></g></g></g></svg>